<svg preserveAspectRatio="none" width="100%" height="100%" overflow="visible" style="display: block;" viewBox="0 0 195 43" fill="none" xmlns="http://www.w3.org/2000/svg">
<path id="Vector" d="M13.6406 34.9922C10.9687 34.9922 8.6328 34.6016 6.6328 33.8203C4.6484 33.0235 3.0859 31.8906 1.9453 30.4219C0.804697 28.9375 0.163999 27.1563 0.0233994 25.0781L0 24.7031H6.6797L6.7265 24.961C6.8828 25.836 7.2734 26.5938 7.8984 27.2344C8.539 27.8594 9.3672 28.3516 10.3828 28.711C11.3984 29.0547 12.5468 29.2266 13.8281 29.2266C15.1406 29.2266 16.2656 29.0547 17.2031 28.711C18.1562 28.3516 18.8906 27.8516 19.4062 27.211C19.9375 26.5547 20.2031 25.7969 20.2031 24.9375V24.9141C20.2031 23.7735 19.75 22.8828 18.8437 22.2422C17.9531 21.586 16.4531 21.0391 14.3437 20.6016L10.7812 19.8985C7.4531 19.2266 4.9453 18.0938 3.2578 16.5C1.5703 14.9063 0.726501 12.836 0.726501 10.2891V10.2656C0.726501 8.2031 1.2812 6.4063 2.3906 4.875C3.5 3.3281 5.0234 2.1328 6.9609 1.2891C8.8984 0.429701 11.1172 0 13.6172 0C16.2265 0 18.4765 0.406301 20.3672 1.2188C22.2734 2.0313 23.7578 3.1797 24.8203 4.6641C25.8828 6.1485 26.4687 7.875 26.5781 9.8438L26.6011 10.2891H19.9218L19.8984 10.0078C19.7734 9.1172 19.4375 8.3594 18.8906 7.7344C18.3437 7.0938 17.6172 6.6016 16.7109 6.2578C15.8203 5.9141 14.789 5.7422 13.6172 5.7422C12.414 5.7422 11.375 5.9219 10.5 6.2813C9.625 6.625 8.9531 7.1016 8.4843 7.711C8.0312 8.3203 7.8047 9.0313 7.8047 9.8438V9.8672C7.8047 10.9297 8.2578 11.7891 9.164 12.4453C10.0703 13.1016 11.4922 13.625 13.4297 14.0156L17.0156 14.7422C19.375 15.211 21.3125 15.8594 22.8281 16.6875C24.3437 17.5156 25.4609 18.5625 26.1797 19.8281C26.9141 21.0781 27.2811 22.586 27.2811 24.3516V24.375C27.2811 26.5469 26.7341 28.4297 25.6406 30.0235C24.5625 31.6016 23 32.8281 20.9531 33.7031C18.9218 34.5625 16.4843 34.9922 13.6406 34.9922ZM39.5751 34.9219C36.7941 34.9219 34.7321 34.336 33.3881 33.1641C32.0441 31.9922 31.3721 30.0625 31.3721 27.375V14.4375H27.8801V9.2813H31.3721V3.1406H38.2861V9.2813H42.8801V14.4375H38.2861V26.625C38.2861 27.7969 38.5441 28.6172 39.0601 29.086C39.5911 29.5391 40.3721 29.7656 41.4041 29.7656C41.7161 29.7656 41.9901 29.7578 42.2241 29.7422C42.4581 29.711 42.6771 29.6797 42.8801 29.6485V34.6641C42.5051 34.7266 42.0361 34.7813 41.4741 34.8281C40.9271 34.8906 40.2941 34.9219 39.5751 34.9219ZM52.4561 34.8047C50.7841 34.8047 49.3151 34.4844 48.0501 33.8438C46.7841 33.1875 45.7921 32.2891 45.0731 31.1485C44.3701 29.9922 44.0181 28.6797 44.0181 27.211V27.1641C44.0181 25.6328 44.4011 24.3281 45.1671 23.25C45.9321 22.1563 47.0421 21.2969 48.4951 20.6719C49.9481 20.0469 51.7141 19.6641 53.7921 19.5235L63.5891 18.9141V23.1797L54.8231 23.7422C53.5101 23.8203 52.5101 24.1328 51.8231 24.6797C51.1351 25.211 50.7921 25.9219 50.7921 26.8125V26.8594C50.7921 27.7813 51.1431 28.5078 51.8461 29.0391C52.5501 29.5547 53.4951 29.8125 54.6821 29.8125C55.6981 29.8125 56.6041 29.6172 57.4011 29.2266C58.2141 28.8203 58.8461 28.2735 59.3001 27.586C59.7681 26.8828 60.0031 26.0938 60.0031 25.2188V17.6016C60.0031 16.4922 59.6511 15.6172 58.9481 14.9766C58.2451 14.3203 57.2211 13.9922 55.8781 13.9922C54.5961 13.9922 53.5811 14.2578 52.8311 14.7891C52.0811 15.3203 51.6201 15.9922 51.4481 16.8047L51.4011 17.0156H45.1431L45.1671 16.7344C45.2921 15.1875 45.8001 13.8125 46.6901 12.6094C47.5961 11.4063 48.8461 10.4688 50.4401 9.7969C52.0501 9.1094 53.9561 8.7656 56.1591 8.7656C58.3311 8.7656 60.2141 9.1172 61.8071 9.8203C63.4011 10.5078 64.6351 11.4844 65.5101 12.75C66.4011 14.0156 66.8461 15.4922 66.8461 17.1797V34.4063H60.0031V30.6563H59.8621C59.3931 31.5156 58.7841 32.2578 58.0341 32.8828C57.3001 33.4922 56.4641 33.9688 55.5261 34.3125C54.5891 34.6406 53.5651 34.8047 52.4561 34.8047ZM80.1721 34.9219C77.8601 34.9219 75.8911 34.586 74.2661 33.9141C72.6411 33.2422 71.3671 32.3125 70.4451 31.125C69.5391 29.9219 68.9921 28.5313 68.8051 26.9531L68.7811 26.7422H75.4611L75.5081 26.9531C75.7271 27.9375 76.2191 28.7031 76.9851 29.25C77.7501 29.7969 78.8131 30.0703 80.1721 30.0703C81.0471 30.0703 81.7891 29.9688 82.3991 29.7656C83.0081 29.5469 83.4771 29.2422 83.8051 28.8516C84.1491 28.461 84.3201 27.9922 84.3201 27.4453V27.4219C84.3201 26.75 84.0781 26.211 83.5941 25.8047C83.1101 25.3985 82.2501 25.0547 81.0161 24.7735L76.7501 23.8828C75.1251 23.5391 73.7661 23.0469 72.6721 22.4063C71.5941 21.75 70.7811 20.9453 70.2351 19.9922C69.6881 19.0235 69.4141 17.9141 69.4141 16.6641V16.6406C69.4141 15.0313 69.8441 13.6406 70.7031 12.4688C71.5631 11.2969 72.7811 10.3906 74.3601 9.75C75.9531 9.0938 77.8131 8.7656 79.9381 8.7656C82.1561 8.7656 84.0391 9.125 85.5861 9.8438C87.1491 10.5469 88.3441 11.5 89.1721 12.7031C90.0161 13.9063 90.4611 15.2422 90.5081 16.711V16.9453H84.2031L84.1801 16.7578C84.0701 15.8516 83.6491 15.1016 82.9141 14.5078C82.1951 13.8985 81.2031 13.5938 79.9381 13.5938C79.1561 13.5938 78.4771 13.7031 77.8991 13.9219C77.3201 14.1406 76.8751 14.4531 76.5631 14.8594C76.2501 15.25 76.0941 15.7188 76.0941 16.2656V16.2891C76.0941 16.711 76.1951 17.0938 76.3991 17.4375C76.6171 17.7656 76.9771 18.0547 77.4771 18.3047C77.9771 18.5547 78.6491 18.7735 79.4921 18.961L83.7581 19.875C86.3991 20.4219 88.2891 21.2422 89.4301 22.336C90.5861 23.4297 91.1641 24.8985 91.1641 26.7422V26.7656C91.1641 28.4063 90.6951 29.836 89.7581 31.0547C88.8201 32.2735 87.5241 33.2266 85.8671 33.9141C84.2271 34.586 82.3281 34.9219 80.1721 34.9219ZM93.2631 34.4063V0.586H100.107V13.6172H100.248C100.904 12.0547 101.88 10.8594 103.177 10.0313C104.49 9.1875 106.084 8.7656 107.959 8.7656C109.787 8.7656 111.357 9.1719 112.67 9.9844C113.982 10.7813 114.99 11.9141 115.693 13.3828C116.412 14.8516 116.771 16.6016 116.771 18.6328V34.4063H109.927V20.0391C109.927 18.2891 109.505 16.9219 108.662 15.9375C107.834 14.9375 106.638 14.4375 105.076 14.4375C104.076 14.4375 103.201 14.6797 102.451 15.1641C101.716 15.6328 101.138 16.2891 100.716 17.1328C100.31 17.961 100.107 18.9219 100.107 20.0156V34.4063H93.2631ZM123.886 23.7422V18.211H132.183C134.214 18.211 135.792 17.6953 136.917 16.6641C138.058 15.6172 138.628 14.1328 138.628 12.211V12.1641C138.628 10.2422 138.058 8.7656 136.917 7.7344C135.792 6.7031 134.214 6.1875 132.183 6.1875H123.886V0.586H133.917C136.292 0.586 138.37 1.0703 140.151 2.0391C141.933 2.9922 143.315 4.336 144.3 6.0703C145.3 7.8047 145.8 9.8281 145.8 12.1406V12.1875C145.8 14.5156 145.3 16.5469 144.3 18.2813C143.315 20.0156 141.933 21.3594 140.151 22.3125C138.37 23.2656 136.292 23.7422 133.917 23.7422H123.886ZM120.323 34.4063V0.586H127.401V34.4063H120.323ZM153.805 34.8047C152.133 34.8047 150.665 34.4844 149.399 33.8438C148.133 33.1875 147.141 32.2891 146.422 31.1485C145.719 29.9922 145.368 28.6797 145.368 27.211V27.1641C145.368 25.6328 145.75 24.3281 146.516 23.25C147.282 22.1563 148.391 21.2969 149.844 20.6719C151.297 20.0469 153.063 19.6641 155.141 19.5235L164.938 18.9141V23.1797L156.172 23.7422C154.86 23.8203 153.86 24.1328 153.172 24.6797C152.485 25.211 152.141 25.9219 152.141 26.8125V26.8594C152.141 27.7813 152.493 28.5078 153.196 29.0391C153.899 29.5547 154.844 29.8125 156.032 29.8125C157.047 29.8125 157.954 29.6172 158.75 29.2266C159.563 28.8203 160.196 28.2735 160.649 27.586C161.118 26.8828 161.352 26.0938 161.352 25.2188V17.6016C161.352 16.4922 161 15.6172 160.297 14.9766C159.594 14.3203 158.571 13.9922 157.227 13.9922C155.946 13.9922 154.93 14.2578 154.18 14.7891C153.43 15.3203 152.969 15.9922 152.797 16.8047L152.75 17.0156H146.493L146.516 16.7344C146.641 15.1875 147.149 13.8125 148.04 12.6094C148.946 11.4063 150.196 10.4688 151.79 9.7969C153.399 9.1094 155.305 8.7656 157.508 8.7656C159.68 8.7656 161.563 9.1172 163.157 9.8203C164.75 10.5078 165.985 11.4844 166.86 12.75C167.75 14.0156 168.196 15.4922 168.196 17.1797V34.4063H161.352V30.6563H161.211C160.743 31.5156 160.133 32.2578 159.383 32.8828C158.649 33.4922 157.813 33.9688 156.875 34.3125C155.938 34.6406 154.915 34.8047 153.805 34.8047ZM174.982 42.6797C174.31 42.6797 173.662 42.6485 173.037 42.586C172.412 42.5235 171.896 42.4531 171.49 42.375V37.2891C171.74 37.336 172.06 37.3828 172.451 37.4297C172.842 37.4922 173.287 37.5235 173.787 37.5235C174.818 37.5235 175.631 37.3516 176.225 37.0078C176.818 36.6641 177.264 36.0703 177.56 35.2266L177.865 34.4063L168.982 9.2813H176.506L182.178 30.2813L181.264 28.9219H182.553L181.639 30.2813L187.31 9.2813H194.529L185.904 34.8516C185.248 36.8203 184.42 38.375 183.42 39.5156C182.435 40.6563 181.248 41.4688 179.857 41.9531C178.467 42.4375 176.842 42.6797 174.982 42.6797Z" fill="var(--fill-0, #1E1E1E)"/>
</svg>
